<svg width="100%" height="100%" id="svg" viewBox="0 0 1440 390" xmlns="http://www.w3.org/2000/svg" class="transition duration-300 ease-in-out delay-150"><defs><linearGradient id="gradient" x1="0%" y1="50%" x2="100%" y2="50%"><stop offset="5%" stop-color="#40919a"></stop><stop offset="95%" stop-color="#79d7be"></stop></linearGradient></defs><path d="M 0,400 L 0,60 C 82.32564102564103,39.6474358974359 164.65128205128207,19.29487179487179 242,38 C 319.34871794871793,56.70512820512821 391.7205128205128,114.46794871794873 464,152 C 536.2794871794872,189.53205128205127 608.4666666666667,206.83333333333334 685,220 C 761.5333333333333,233.16666666666666 842.4128205128204,242.19871794871796 936,271 C 1029.5871794871796,299.80128205128204 1135.8820512820512,348.37179487179486 1222,379 C 1308.1179487179488,409.62820512820514 1374.0589743589744,422.31410256410254 1440,435 L 1440,400 L 0,400 Z" stroke="none" stroke-width="0" fill="url(#gradient)" fill-opacity="0.265" class="transition-all duration-300 ease-in-out delay-150 path-0"></path><defs><linearGradient id="gradient" x1="0%" y1="50%" x2="100%" y2="50%"><stop offset="5%" stop-color="#40919a"></stop><stop offset="95%" stop-color="#79d7be"></stop></linearGradient></defs><path d="M 0,400 L 0,140 C 86.71025641025639,134.37564102564102 173.42051282051278,128.75128205128203 249,138 C 324.5794871794872,147.24871794871797 389.0282051282052,171.37051282051286 455,202 C 520.9717948717948,232.62948717948714 588.4666666666667,269.76666666666665 680,299 C 771.5333333333333,328.23333333333335 887.105128205128,349.5628205128205 967,373 C 1046.894871794872,396.4371794871795 1091.1128205128207,421.9820512820513 1164,446 C 1236.8871794871793,470.0179487179487 1338.4435897435897,492.50897435897434 1440,515 L 1440,400 L 0,400 Z" stroke="none" stroke-width="0" fill="url(#gradient)" fill-opacity="0.4" class="transition-all duration-300 ease-in-out delay-150 path-1"></path><defs><linearGradient id="gradient" x1="0%" y1="50%" x2="100%" y2="50%"><stop offset="5%" stop-color="#40919a"></stop><stop offset="95%" stop-color="#79d7be"></stop></linearGradient></defs><path d="M 0,400 L 0,220 C 87.7205128205128,217.03974358974358 175.4410256410256,214.0794871794872 246,220 C 316.5589743589744,225.9205128205128 369.9564102564103,240.72179487179488 450,267 C 530.0435897435897,293.2782051282051 636.7333333333333,331.0333333333333 731,353 C 825.2666666666667,374.9666666666667 907.1102564102564,381.1448717948718 984,415 C 1060.8897435897436,448.8551282051282 1132.825641025641,510.38717948717954 1208,545 C 1283.174358974359,579.6128205128205 1361.5871794871796,587.3064102564102 1440,595 L 1440,400 L 0,400 Z" stroke="none" stroke-width="0" fill="url(#gradient)" fill-opacity="0.53" class="transition-all duration-300 ease-in-out delay-150 path-2"></path><defs><linearGradient id="gradient" x1="0%" y1="50%" x2="100%" y2="50%"><stop offset="5%" stop-color="#40919a"></stop><stop offset="95%" stop-color="#79d7be"></stop></linearGradient></defs><path d="M 0,400 L 0,300 C 100.95641025641027,305.67564102564097 201.91282051282053,311.351282051282 272,327 C 342.08717948717947,342.648717948718 381.30512820512814,368.27051282051286 444,386 C 506.69487179487186,403.72948717948714 592.8666666666667,413.56666666666666 691,436 C 789.1333333333333,458.43333333333334 899.228205128205,493.4628205128206 984,520 C 1068.771794871795,546.5371794871794 1128.220512820513,564.5820512820512 1200,589 C 1271.779487179487,613.4179487179488 1355.8897435897434,644.2089743589744 1440,675 L 1440,400 L 0,400 Z" stroke="none" stroke-width="0" fill="url(#gradient)" fill-opacity="1" class="transition-all duration-300 ease-in-out delay-150 path-3"></path></svg>